<svg xmlns="http://www.w3.org/2000/svg" width="23.073" height="22.024" viewBox="0 0 23.073 22.024">
  <g id="Raggruppa_72946" data-name="Raggruppa 72946" transform="translate(-1664.146 -8492.304)">
    <path id="Tracciato_934" data-name="Tracciato 934" d="M1095.214,527.706h-8.841a7.125,7.125,0,0,1-7.116-7.117V512.8a7.124,7.124,0,0,1,7.116-7.116h8.841a7.125,7.125,0,0,1,7.116,7.116v7.791A7.125,7.125,0,0,1,1095.214,527.706Zm-8.841-20.443a5.541,5.541,0,0,0-5.535,5.535v7.791a5.541,5.541,0,0,0,5.535,5.535h8.841a5.541,5.541,0,0,0,5.535-5.535V512.8a5.541,5.541,0,0,0-5.535-5.535Z" transform="translate(584.889 7986.623)" fill="#fff"/>
    <path id="Tracciato_935" data-name="Tracciato 935" d="M1107.691,538.221a6.335,6.335,0,1,1,6.335-6.335A6.342,6.342,0,0,1,1107.691,538.221Zm0-11.088a4.753,4.753,0,1,0,4.753,4.753A4.758,4.758,0,0,0,1107.691,527.133Z" transform="translate(567.992 7971.431)" fill="#fff"/>
    <path id="Tracciato_936" data-name="Tracciato 936" d="M1151.81,522.11a1.314,1.314,0,1,1-1.314-1.315A1.314,1.314,0,0,1,1151.81,522.11Z" transform="translate(531.426 7975.066)" fill="#fff"/>
  </g>
</svg>
