<svg xmlns="http://www.w3.org/2000/svg" width="215.504" height="47.194" viewBox="0 0 215.504 47.194">
  <g id="Raggruppa_72712" data-name="Raggruppa 72712" transform="translate(375.379 -124.695)">
    <path id="Tracciato_10" data-name="Tracciato 10" d="M-344.381,160.436h-21.026V125.268h-9.971v45.139h31Z" transform="translate(0 0.515)"/>
    <rect id="Rettangolo_2" data-name="Rettangolo 2" width="9.969" height="45.318" transform="translate(-335.728 125.603)"/>
    <path id="Tracciato_11" data-name="Tracciato 11" d="M-264.674,149.652l-27.554-24.958v46.227h9.971V147.295l27.552,24.532V125.663h-9.969Z" transform="translate(74.686 0)"/>
    <rect id="Rettangolo_3" data-name="Rettangolo 3" width="9.969" height="45.318" transform="translate(-169.844 125.603)"/>
    <path id="Tracciato_12" data-name="Tracciato 12" d="M-314.665,125.173l-9.971,23.141-9.969-23.141h-10.818l20.787,46.286,20.783-46.286Z" transform="translate(26.907 0.43)"/>
    <path id="Tracciato_13" data-name="Tracciato 13" d="M-298.735,161.617A13.5,13.5,0,0,1-311.967,148.2a13.386,13.386,0,0,1,13.232-13.595A13.413,13.413,0,0,1-285.379,148.2a13.529,13.529,0,0,1-13.356,13.417M-298.8,124.7a23.278,23.278,0,0,0-23.263,23.627A23.212,23.212,0,0,0-298.8,171.827a23.276,23.276,0,0,0,23.384-23.505A23.342,23.342,0,0,0-298.8,124.7" transform="translate(47.893 0)"/>
  </g>
</svg>
